<?xml version="1.0" encoding="utf-8"?>
<!-- Generator: Adobe Illustrator 23.0.2, SVG Export Plug-In . SVG Version: 6.00 Build 0)  -->
<svg version="1.1" id="Layer_1" xmlns="http://www.w3.org/2000/svg" xmlns:xlink="http://www.w3.org/1999/xlink" x="0px" y="0px"
	 viewBox="0 0 2048 2048" style="enable-background:new 0 0 2048 2048;" xml:space="preserve">
<style type="text/css">
	.st0{fill:#69392C;}
	.st1{fill:#60B7FF;}
	.st2{fill:#ECF0F9;}
	.st3{fill:#EBB39E;}
	.st4{fill:#C4E2FF;}
	.st5{fill:#784132;}
	.st6{fill:#4A4970;}
	.st7{fill:#EBB39F;}
	.st8{fill:#F4BAA6;}
	.st9{fill:#F4C9B9;}
</style>
<g>
	<path class="st0" d="M1191.52,427.81c0,0,25.67-140.9-122.36-168.38c-27.41-5.09-55.59-5.09-83,0
		c-148.03,27.48-122.36,168.38-122.36,168.38v91.55h329.42L1191.52,427.81z"/>
	<g>
		<path class="st1" d="M795.08,1239.88c-3.22,0.77-6.47,1.45-9.73,2.04c-169.41,30.39-298.85,178.37-298.85,356.31v193.38h1075.36
			v-193.38c0-178.72-129.48-327.19-299.78-356.69c-2.87-0.49-5.74-1.06-8.58-1.7h-78.58v-38.79l-302.05-1.12v39.95H795.08z"/>
	</g>
	<polygon class="st2" points="1229.72,1384.26 818.63,1384.26 963.14,1791.61 1085.21,1791.61 	"/>
	<g>
		<path class="st3" d="M872.72,1384.26l-43.84-156.12c72.53-40.13,104.51-90.1,104.51-90.1h181.94c0,0,32.3,50.76,104.83,90.89
			L1176,1384.26H872.72z"/>
	</g>
	<g>
		<path class="st4" d="M989.07,1791.61h-64.54l-149.28-211.78l59.49-88.58l-86.09-87.3l46.43-164.07
			c7.27-1.74,14.42-3.93,21.42-6.57c2.1-0.79,4.17-1.61,6.24-2.47c2.06-0.86,4.11-1.76,6.14-2.69l44.38,156.11L989.07,1791.61z"/>
		<path class="st4" d="M1213.62,1491.25l59.49,88.58l-149.29,211.78h-63.61L1176,1384.26l44.16-155.33l0.02,0.01
			c10.7,4.66,21.84,8.34,33.32,10.89l46.2,164.11L1213.62,1491.25z"/>
	</g>
	<path class="st5" d="M1380.89,837.46c1.91-16.88,2.89-34.1,2.89-51.56c0-155.8-78.03-290.97-192.26-358.1
		c-49.05-28.83-104.77-45.13-163.85-45.13c-59.08,0-114.81,16.3-163.85,45.13c-114.23,67.13-192.26,202.3-192.26,358.1
		c0,17.46,1.34,34.67,3.25,51.56H1380.89z"/>
	<g>
		<g>
			
				<rect x="1220.03" y="783.58" transform="matrix(0.9364 -0.3508 0.3508 0.9364 -196.5206 498.4784)" class="st6" width="114.71" height="16"/>
		</g>
		<g>
			
				<rect x="769.19" y="734.22" transform="matrix(0.3508 -0.9364 0.9364 0.3508 -236.7396 1241.6455)" class="st6" width="16" height="114.71"/>
		</g>
	</g>
	<g>
		<path class="st7" d="M1290.22,792.86c5.79-1.13,22.15-1.57,28.32-1.21c28.55,1.66,52.68,20.31,62.48,45.86
			c2.68,6.98,4.28,14.47,4.61,22.28c1.76,40.88-30.84,74.58-71.33,74.58c-8.13,0-26.27-1.36-33.56-3.87L1290.22,792.86z"/>
		<path class="st7" d="M765.58,792.86c-5.79-1.13-22.15-1.57-28.33-1.21c-28.55,1.66-52.67,20.31-62.47,45.86
			c-2.68,6.98-4.29,14.47-4.62,22.28c-1.76,40.88,30.84,74.58,71.33,74.58c8.14,0,26.27-1.36,33.56-3.87L765.58,792.86z"/>
	</g>
	<path class="st8" d="M1302.76,836.13c0,178.47-123.16,323.15-275.09,323.15c-151.92,0-275.09-144.68-275.09-323.15
		c0-19.01,1.4-37.64,4.08-55.75c12.14-81.98,72.89-141.54,143.48-141.54h255.08c70.58,0,131.34,59.56,143.48,141.54
		C1301.36,798.49,1302.76,817.12,1302.76,836.13z"/>
	<g>
		<circle class="st9" cx="913.51" cy="811.7" r="82.28"/>
		<circle class="st5" cx="913.51" cy="811.7" r="30.05"/>
		<circle class="st9" cx="1142.28" cy="811.7" r="82.28"/>
		<g>
			<g>
				<path class="st6" d="M913.51,903.05c-50.37,0-91.35-40.98-91.35-91.35s40.98-91.35,91.35-91.35c50.37,0,91.35,40.98,91.35,91.35
					S963.89,903.05,913.51,903.05z M913.51,738.93c-40.13,0-72.77,32.65-72.77,72.77s32.65,72.77,72.77,72.77
					s72.77-32.65,72.77-72.77S953.64,738.93,913.51,738.93z"/>
			</g>
		</g>
		<g>
			<g>
				<path class="st6" d="M1142.28,903.05c-50.37,0-91.35-40.98-91.35-91.35s40.98-91.35,91.35-91.35
					c50.37,0,91.35,40.98,91.35,91.35S1192.65,903.05,1142.28,903.05z M1142.28,738.93c-40.13,0-72.77,32.65-72.77,72.77
					s32.65,72.77,72.77,72.77c40.13,0,72.77-32.65,72.77-72.77S1182.4,738.93,1142.28,738.93z"/>
			</g>
		</g>
		<g>
			<g>
				<path class="st6" d="M1060.21,820.99h-64.64c-5.13,0-9.29-4.16-9.29-9.29s4.16-9.29,9.29-9.29h64.64c5.13,0,9.29,4.16,9.29,9.29
					S1065.34,820.99,1060.21,820.99z"/>
			</g>
		</g>
		<circle class="st5" cx="1142.28" cy="811.7" r="30.05"/>
	</g>
	<path class="st5" d="M1027.67,1038.41c-31.08,0-60.26-12.07-82.17-33.98c-1.88-1.88-2.92-4.39-2.92-7.05
		c0-2.66,1.04-5.17,2.92-7.05c1.88-1.88,4.39-2.92,7.05-2.92s5.17,1.04,7.05,2.92c18.16,18.15,42.33,28.15,68.07,28.15
		c25.74,0,49.92-10,68.07-28.15c1.88-1.88,4.39-2.92,7.05-2.92s5.17,1.04,7.05,2.92c1.88,1.88,2.92,4.39,2.92,7.05
		c0,2.66-1.04,5.17-2.92,7.05C1087.92,1026.34,1058.74,1038.41,1027.67,1038.41z"/>
	<g>
		<g>
			
				<rect x="1220.03" y="783.88" transform="matrix(0.9364 -0.3508 0.3508 0.9364 -196.6289 498.498)" class="st6" width="114.71" height="16"/>
		</g>
		<g>
			
				<rect x="769.19" y="734.21" transform="matrix(0.3508 -0.9364 0.9364 0.3508 -236.7336 1241.6414)" class="st6" width="16" height="114.71"/>
		</g>
	</g>
	<path class="st5" d="M1383.78,785.91c0,17.38-0.97,34.51-2.87,51.32c-9.85-25.4-33.91-43.93-62.37-45.58
		c-3.84-0.22-11.62-0.14-18.34,0.23c-0.45-3.85-0.96-7.69-1.52-11.5c-12.14-81.98-72.89-141.54-143.47-141.54H900.13
		c-70.59,0-131.34,59.56-143.48,141.54c-0.56,3.81-1.07,7.63-1.51,11.48c-6.61-0.35-14.13-0.43-17.89-0.21
		c-28.54,1.66-52.64,20.29-62.45,45.81l0,0c-1.91-16.88-3.25-34.09-3.25-51.55c0-155.81,78.03-290.97,192.26-358.11
		c49.05-28.82,104.77-45.12,163.86-45.12c59.08,0,114.8,16.3,163.85,45.12C1305.75,494.94,1383.78,630.1,1383.78,785.91z"/>
</g>
</svg>
